HIERARCHY
ROOT Hips
{
	OFFSET 0.00000 0.00000 0.00000
	CHANNELS 6 Xposition Yposition Zposition Zrotation Yrotation Xrotation 
	JOINT LHipJoint
	{
		OFFSET 0 0 0
		CHANNELS 3 Zrotation Yrotation Xrotation
		JOINT LeftUpLeg
		{
			OFFSET 1.41496 -1.84582 0.78394
			CHANNELS 3 Zrotation Yrotation Xrotation
			JOINT LeftLeg
			{
				OFFSET 2.58040 -7.08960 0.00000
				CHANNELS 3 Zrotation Yrotation Xrotation
				JOINT LeftFoot
				{
					OFFSET 2.64719 -7.27309 0.00000
					CHANNELS 3 Zrotation Yrotation Xrotation
					JOINT LeftToeBase
					{
						OFFSET 0.20718 -0.56921 2.20259
						CHANNELS 3 Zrotation Yrotation Xrotation
						End Site
						{
							OFFSET 0.00000 -0.00000 1.14243
						}
					}
				}
			}
		}
	}
	JOINT RHipJoint
	{
		OFFSET 0 0 0
		CHANNELS 3 Zrotation Yrotation Xrotation
		JOINT RightUpLeg
		{
			OFFSET -1.40551 -1.84582 0.78394
			CHANNELS 3 Zrotation Yrotation Xrotation
			JOINT RightLeg
			{
				OFFSET -2.56572 -7.04926 0.00000
				CHANNELS 3 Zrotation Yrotation Xrotation
				JOINT RightFoot
				{
					OFFSET -2.57974 -7.08778 0.00000
					CHANNELS 3 Zrotation Yrotation Xrotation
					JOINT RightToeBase
					{
						OFFSET -0.26704 -0.73369 2.20815
						CHANNELS 3 Zrotation Yrotation Xrotation
						End Site
						{
							OFFSET -0.00000 -0.00000 1.16246
						}
					}
				}
			}
		}
	}
	JOINT LowerBack
	{
		OFFSET 0 0 0
		CHANNELS 3 Zrotation Yrotation Xrotation
		JOINT Spine
		{
			OFFSET -0.04690 2.05196 -0.07017
			CHANNELS 3 Zrotation Yrotation Xrotation
			JOINT Spine1
			{
				OFFSET 0.04085 2.05260 0.00800
				CHANNELS 3 Zrotation Yrotation Xrotation
				JOINT Neck
				{
					OFFSET 0 0 0
					CHANNELS 3 Zrotation Yrotation Xrotation
					JOINT Neck1
					{
						OFFSET -0.03582 1.80995 0.19301
						CHANNELS 3 Zrotation Yrotation Xrotation
						JOINT Head
						{
							OFFSET 0.00952 1.80195 -0.36389
							CHANNELS 3 Zrotation Yrotation Xrotation
							End Site
							{
								OFFSET 0.00392 1.85062 -0.14494
							}
						}
					}
				}
				JOINT LeftShoulder
				{
					OFFSET 0 0 0
					CHANNELS 3 Zrotation Yrotation Xrotation
					JOINT LeftArm
					{
						OFFSET 3.55224 1.39726 -0.13667
						CHANNELS 3 Zrotation Yrotation Xrotation
						JOINT LeftForeArm
						{
							OFFSET 5.14507 -0.00000 -0.00000
							CHANNELS 3 Zrotation Yrotation Xrotation
							JOINT LeftHand
							{
								OFFSET 3.50646 -0.00000 0.00000
								CHANNELS 3 Zrotation Yrotation Xrotation
								JOINT LeftFingerBase
								{
									OFFSET 0 0 0
									CHANNELS 3 Zrotation Yrotation Xrotation
									JOINT LeftHandIndex1
									{
										OFFSET 0.62997 -0.00000 0.00000
										CHANNELS 3 Zrotation Yrotation Xrotation
										End Site
										{
											OFFSET 0.50790 -0.00000 0.00000
										}
									}
								}
								JOINT LThumb
								{
									OFFSET 0 0 0
									CHANNELS 3 Zrotation Yrotation Xrotation
									End Site
									{
										OFFSET 0.51565 -0.00000 0.51565
									}
								}
							}
						}
					}
				}
				JOINT RightShoulder
				{
					OFFSET 0 0 0
					CHANNELS 3 Zrotation Yrotation Xrotation
					JOINT RightArm
					{
						OFFSET -3.06467 1.61290 -0.28813
						CHANNELS 3 Zrotation Yrotation Xrotation
						JOINT RightForeArm
						{
							OFFSET -5.23200 -0.00000 -0.00000
							CHANNELS 3 Zrotation Yrotation Xrotation
							JOINT RightHand
							{
								OFFSET -3.65641 -0.00000 0.00000
								CHANNELS 3 Zrotation Yrotation Xrotation
								JOINT RightFingerBase
								{
									OFFSET 0 0 0
									CHANNELS 3 Zrotation Yrotation Xrotation
									JOINT RightHandIndex1
									{
										OFFSET -0.65681 -0.00000 0.00000
										CHANNELS 3 Zrotation Yrotation Xrotation
										End Site
										{
											OFFSET -0.52953 -0.00000 0.00000
										}
									}
								}
								JOINT RThumb
								{
									OFFSET 0 0 0
									CHANNELS 3 Zrotation Yrotation Xrotation
									End Site
									{
										OFFSET -0.53762 -0.00000 0.53762
									}
								}
							}
						}
					}
				}
			}
		}
	}
}
MOTION
Frames: 9
Frame Time: 0.0307692
0.00 0.00 0.00 -179.8450 -24.9276 -191.1720 0.0000 0.0000 0.0000 -15.9499 -19.3387 -29.8936 11.6575 18.2421 64.8989 0.6786 -7.5027 -14.8140 0.1634 -2.6042 -7.1786 0.0000 0.0000 0.0000 14.3077 3.6817 -42.2415 -6.7833 -15.1466 48.0498 -0.5369 2.5554 -13.2015 -3.3546 11.2481 -33.1212 -2.5387 0.8826 19.8115 0.9347 0.4893 0.9209 2.3539 0.2911 -10.1602 -1.7230 -0.3676 -18.8893 1.1054 -0.2242 11.2585 0.6109 -0.0880 6.5060 -0.0000 -0.0000 0.0000 -70.8099 44.7350 5.0651 18.5627 -28.8717 -4.8179 -0.0000 -0.0000 5.8754 26.7048 -3.7953 -1.9071 -7.1250 0.0000 -0.0000 0.0581 25.7328 -0.0271 -0.0000 -0.0000 0.0000 53.7240 -44.2768 24.2336 -98.4364 59.7293 -67.2995 0.0000 -0.0000 -0.2541 -22.8252 9.1890 -3.8451 7.1250 -0.0000 -0.0000 2.9421 -20.0315 1.7586
0.00 0.00 0.00 -178.2250 -27.1513 -192.3010 0.0000 0.0000 0.0000 -13.1377 -18.6147 -34.5514 16.8150 19.7550 80.6512 1.0921 -14.0431 -19.7669 0.1357 -2.3739 -6.5403 0.0000 0.0000 0.0000 13.6408 10.6738 -43.1788 -6.7586 -15.1252 47.9552 -0.2374 -2.6262 -10.5563 -4.6144 12.9360 -39.1292 -1.1699 0.1288 22.1571 0.6482 -0.3600 1.6804 1.5231 -0.2284 -10.5605 -2.7291 -0.8828 -18.6136 2.7911 -0.9166 9.1617 1.2360 -0.3307 5.8111 0.0000 0.0000 0.0000 -78.5679 28.1003 -4.9937 14.6179 -23.6111 -3.0713 -0.0000 -0.0000 10.0918 26.8902 -2.0479 -1.0382 -7.1250 0.0000 -0.0000 0.2364 27.6838 -0.0995 0.0000 0.0000 0.0000 71.4081 -33.8981 16.4565 -74.7005 59.0968 -46.7904 0.0000 -0.0000 -7.0186 -28.0330 8.6838 -4.5961 7.1250 -0.0000 -0.0000 -0.8140 -20.1634 -0.4836
0.00 0.00 0.00 -176.7030 -28.3381 -196.5120 0.0000 0.0000 0.0000 -10.5726 -16.4529 -33.8707 21.7641 19.9252 95.1640 0.5579 -20.0643 -18.3602 0.2866 -3.4427 -9.5139 0.0000 0.0000 0.0000 14.3544 14.7337 -44.6349 -11.2373 -18.0493 63.5499 -0.1101 0.0415 -6.2524 -3.6519 11.6822 -34.6170 -0.7944 0.0327 24.8345 1.1816 -0.5163 2.6163 1.9934 -0.3766 -10.9443 -3.5508 -1.1761 -17.8056 2.7658 -1.1314 10.8710 1.3446 -0.4663 6.2381 -0.0000 0.0000 0.0000 -87.7447 11.6302 0.6588 16.3693 -26.0188 -3.8065 -0.0000 -0.0000 5.6836 29.5557 -0.5336 -0.3026 -7.1250 0.0000 -0.0000 2.3420 29.3627 -0.8934 -0.0000 0.0000 0.0000 81.0312 -19.8195 16.0480 -45.9731 51.2364 -22.9950 0.0000 -0.0000 -11.9168 -29.5636 10.2459 -5.7614 7.1250 -0.0000 -0.0000 -1.7842 -18.2435 -1.1365
0.00 0.00 0.00 -173.8280 -33.0128 -199.5490 0.0000 0.0000 0.0000 -5.8778 -19.3133 -34.8593 25.2741 19.3196 105.5903 -1.8983 -26.3901 -2.9967 0.2739 -3.3665 -9.3007 0.0000 0.0000 0.0000 17.0036 11.8298 -44.8690 -15.8603 -19.5841 77.8152 -0.4604 0.8105 -12.5613 -1.7876 8.4090 -23.9633 -1.3296 -0.6110 23.8375 1.8975 -1.3652 2.4486 3.3543 -0.7159 -10.5357 -4.5756 -2.5226 -17.6797 5.2869 -3.2227 13.4756 2.1104 -1.3106 7.1924 -0.0000 -0.0000 0.0000 -91.7025 4.5505 36.2834 35.1452 -44.9155 -14.9157 -0.0000 0.0000 -4.5745 28.1795 -3.2745 -1.7527 -7.1250 0.0000 -0.0000 1.1913 26.2658 -0.5412 -0.0000 -0.0000 0.0000 86.1055 -12.1858 21.7593 -37.9345 46.7974 -16.9178 0.0000 -0.0000 -8.9437 -29.5921 10.8375 -6.0949 7.1250 -0.0000 -0.0000 -1.7536 -17.5675 -1.1431
0.00 0.00 0.00 -173.6860 -35.6565 -199.3110 0.0000 0.0000 0.0000 -3.2737 -20.8783 -35.0401 25.6433 19.2187 106.7092 -3.1647 -29.6360 13.4528 0.0008 0.1862 0.5116 0.0000 0.0000 0.0000 18.5302 9.2799 -42.2291 -17.4599 -19.8446 82.5547 -1.0945 -0.8450 -20.0939 -2.1796 9.2305 -26.5191 -2.2894 -0.4544 22.8575 1.2853 -1.3144 1.3952 3.1913 -0.5741 -11.1939 -6.0775 -4.0510 -17.9305 7.5579 -5.4831 15.0911 2.8395 -2.2651 8.0012 0.0000 0.0000 0.0000 -90.5836 -0.2905 55.7956 70.4208 -58.5008 -43.1293 -0.0000 -0.0000 15.4972 29.2004 -8.6490 -4.8042 -7.1250 0.0000 -0.0000 1.6519 20.0969 -0.9841 0.0000 0.0000 0.0000 87.2264 -9.5144 28.0984 -43.1770 49.8435 -20.8359 0.0000 -0.0000 -9.3224 -30.7236 8.2263 -4.8605 7.1250 -0.0000 -0.0000 -2.7750 -20.4387 -1.6332
0.00 0.00 0.00 -173.9360 -36.5080 -198.4120 0.0000 0.0000 0.0000 -2.7372 -20.5438 -35.6070 25.5684 19.2398 106.4815 -2.8778 -28.4746 8.8953 0.0395 -1.2831 -3.5282 0.0000 0.0000 0.0000 19.1048 8.6106 -40.5327 -17.4613 -19.8448 82.5589 -1.3344 -1.7580 -22.5234 -2.3893 9.6338 -27.7988 -2.6357 -0.6251 22.2958 0.8782 -1.6106 0.9208 3.0172 -0.6728 -11.4054 -6.5346 -4.3560 -18.3028 7.8348 -5.8391 15.4126 2.9595 -2.4233 8.2228 0.0000 0.0000 0.0000 -90.0880 -1.4428 59.6160 92.0038 -59.9848 -61.7352 -0.0000 -0.0000 13.4669 30.1655 -8.9899 -5.1894 -7.1250 0.0000 -0.0000 2.3139 19.6146 -1.4040 0.0000 0.0000 0.0000 86.1083 -7.7544 31.9660 -46.0038 51.2509 -23.0190 0.0000 -0.0000 -8.9662 -30.7282 6.7297 -3.9846 7.1250 -0.0000 -0.0000 -2.8963 -22.1671 -1.5914
0.00 0.00 0.00 -174.3730 -37.3164 -196.7600 0.0000 0.0000 0.0000 -3.4250 -18.6036 -36.8562 24.9721 19.3967 104.6793 -1.1439 -21.6464 -3.9906 0.2170 -2.9986 -8.2749 0.0000 0.0000 0.0000 19.6519 8.1286 -38.1997 -16.8765 -19.7645 80.8330 -1.5448 -2.7115 -24.5901 -2.4682 9.7799 -28.2669 -2.4291 -0.8462 21.5768 0.3727 -1.8494 0.4694 2.3917 -0.7852 -11.5255 -7.0166 -4.6919 -18.8216 7.7318 -6.0777 15.1868 2.9652 -2.5557 8.2675 -0.0000 -0.0000 0.0000 -89.3481 -1.9684 62.2308 113.9593 -57.7158 -80.5903 -0.0000 -0.0000 2.3542 31.0520 -8.3791 -5.0142 -7.1250 0.0000 -0.0000 2.9971 20.2307 -1.7782 -0.0000 -0.0000 0.0000 83.8249 -5.4151 36.0583 -50.0077 52.9986 -26.1803 0.0000 -0.0000 -7.7477 -30.3514 5.8166 -3.3961 7.1250 -0.0000 -0.0000 -2.6853 -23.2490 -1.4088
0.00 0.00 0.00 -175.7660 -39.8517 -192.0660 0.0000 0.0000 0.0000 -8.7521 -16.9687 -38.6988 20.3332 19.9973 90.9742 -0.2712 -22.6814 -13.9348 0.1521 -2.5134 -6.9269 0.0000 0.0000 0.0000 19.4698 6.8412 -33.8429 -14.3656 -19.2212 73.3179 -1.7008 -4.7069 -26.7043 -2.2365 9.3422 -26.8717 -2.2639 -1.3337 19.9457 -0.0504 -2.4118 -0.0912 1.9467 -1.0510 -11.2374 -7.3907 -5.2120 -19.6274 6.9131 -6.3306 13.7935 2.7015 -2.7485 7.9411 0.0000 -0.0000 0.0000 -88.0490 1.2505 59.1160 126.7690 -54.2183 -91.2246 -0.0000 -0.0000 5.6732 35.1985 -11.3376 -7.8949 -7.1250 0.0000 -0.0000 5.5742 16.2365 -3.8116 0.0000 -0.0000 0.0000 79.5428 -1.6226 38.2564 -56.0672 55.1675 -31.0902 0.0000 -0.0000 -6.1307 -30.3611 5.8438 -3.4133 7.1250 -0.0000 -0.0000 -2.6906 -23.2169 -1.4135
0.00 0.00 0.00 -176.2130 -40.9074 -188.3380 0.0000 0.0000 0.0000 -12.8958 -16.2640 -36.3149 14.4536 19.2459 73.5852 0.4848 -19.8460 -17.7217 0.0192 -0.8939 -2.4569 0.0000 0.0000 0.0000 20.0991 7.2535 -29.6567 -11.6779 -18.2512 64.9642 -1.5548 -6.6577 -26.7765 -1.7612 8.3498 -23.7818 -1.8828 -1.0350 17.9811 0.3582 -1.8092 -0.3989 1.9502 -0.7748 -10.4916 -7.8168 -5.8358 -19.1355 6.4184 -6.9131 12.3614 2.5361 -3.1041 7.4219 -0.0000 0.0000 0.0000 -86.9658 5.5692 52.8197 115.3125 -57.4349 -81.7325 -0.0000 -0.0000 7.4247 36.2630 -11.3000 -8.1798 -7.1250 0.0000 -0.0000 6.3053 16.1166 -4.3338 -0.0000 0.0000 0.0000 78.4626 -1.3076 34.1542 -59.3639 56.1380 -33.8124 0.0000 -0.0000 -8.1430 -29.4009 4.4718 -2.5157 7.1250 -0.0000 -0.0000 -2.0601 -24.8502 -1.0042
